<?xml version="1.0" encoding="utf-8"?>
<!-- Generator: Adobe Illustrator 27.7.0, SVG Export Plug-In . SVG Version: 6.00 Build 0)  -->
<svg version="1.1" id="Layer_1" xmlns="http://www.w3.org/2000/svg" xmlns:xlink="http://www.w3.org/1999/xlink" x="0px" y="0px"
	 viewBox="0 0 1920 1080" style="enable-background:new 0 0 1920 1080;" xml:space="preserve">
<style type="text/css">
	.st0{opacity:0.41;}
	.st1{fill:#7497C4;}
	.st2{fill:#00574D;}
</style>
<g class="st0">
	<path class="st1" d="M668,648c-13,0-25.9,0.6-38.6,1.9C566.3,412.7,350,238,93,238c-306.5,0-555,248.5-555,555s248.5,555,555,555
		c97.9,0,189.9-25.4,269.8-69.9C434,1368.2,544.2,1426,668,1426c214.8,0,389-174.2,389-389S882.8,648,668,648z"/>
</g>
<g class="st0">
	<path class="st2" d="M2262.6,66.4c-126.5-234.5-419.2-322.1-653.7-195.5c-32.4,17.5-61.9,38.1-88.5,61.3
		c-87.8-116.4-249.8-154.5-382-83.2C992.5-72.3,938,109.7,1016.7,255.6c68.8,127.6,216.7,185.2,350.2,145.1
		c9.5,42.3,24.8,83.9,46.4,123.9c126.5,234.5,419.2,322.1,653.7,195.5S2389.2,300.9,2262.6,66.4z"/>
</g>
</svg>
